<?xml version="1.0" standalone="no"?>
<!DOCTYPE svg PUBLIC "-//W3C//DTD SVG 20010904//EN"
 "http://www.w3.org/TR/2001/REC-SVG-20010904/DTD/svg10.dtd">
<svg version="1.0" xmlns="http://www.w3.org/2000/svg"
 width="700.000000pt" height="700.000000pt" viewBox="0 0 700.000000 700.000000"
 preserveAspectRatio="xMidYMid meet">
<metadata>
Created by potrace 1.11, written by Peter Selinger 2001-2013
</metadata>
<g transform="translate(0.000000,700.000000) scale(0.100000,-0.100000)"
fill="#000000" stroke="none">
<path d="M2223 6955 c-307 -56 -566 -265 -684 -555 l-32 -77 -81 42 c-155 82
-333 122 -492 111 -325 -22 -610 -212 -754 -501 -116 -232 -130 -491 -39 -725
33 -86 145 -280 217 -375 127 -167 410 -409 639 -545 432 -258 945 -432 1300
-441 71 -2 72 -2 123 41 107 90 273 291 393 476 365 565 546 1200 483 1693
-35 274 -116 453 -272 607 -209 207 -513 301 -801 249z"/>
<path d="M4459 6956 c-309 -65 -523 -225 -658 -493 -105 -208 -137 -569 -81
-898 77 -452 297 -947 594 -1340 81 -107 203 -242 266 -295 51 -43 52 -43 123
-41 355 9 868 183 1300 441 229 136 512 378 639 545 72 95 184 289 217 375
166 429 -29 924 -444 1130 -273 135 -567 130 -841 -15 l-81 -42 -32 77 c-107
263 -344 471 -616 541 -103 26 -294 34 -386 15z"/>
<path d="M1930 2911 c-142 -44 -201 -178 -178 -409 51 -523 539 -1050 1157
-1252 221 -72 314 -85 591 -85 264 0 333 9 546 71 474 137 902 489 1098 904
109 231 141 491 77 635 -27 61 -54 91 -105 117 -69 35 -131 33 -366 -11 -224
-41 -486 -80 -700 -103 -84 -9 -266 -13 -550 -13 -284 0 -466 4 -550 13 -211
23 -474 61 -697 103 -211 39 -274 44 -323 30z"/>
</g>
</svg>
